<?xml version="1.0" encoding="UTF-8" standalone="no"?>
<!-- Created with Inkscape (http://www.inkscape.org/) -->

<svg
   xmlns:dc="http://purl.org/dc/elements/1.1/"
   xmlns:cc="http://creativecommons.org/ns#"
   xmlns:rdf="http://www.w3.org/1999/02/22-rdf-syntax-ns#"
   xmlns:svg="http://www.w3.org/2000/svg"
   xmlns="http://www.w3.org/2000/svg"
   xmlns:xlink="http://www.w3.org/1999/xlink"
   xmlns:sodipodi="http://sodipodi.sourceforge.net/DTD/sodipodi-0.dtd"
   xmlns:inkscape="http://www.inkscape.org/namespaces/inkscape"
   width="160.57852"
   height="160.51181"
   id="svg2"
   version="1.1"
   inkscape:version="0.48.3.1 r9886"
   sodipodi:docname="Icon.svg"
   inkscape:export-filename="C:\Users\Mattia Belletti\Documents\GitHub\GathererRipper\GathererRipper\Icon-128.png"
   inkscape:export-xdpi="71.770416"
   inkscape:export-ydpi="71.770416">
  <defs
     id="defs4" />
  <sodipodi:namedview
     id="base"
     pagecolor="#ffffff"
     bordercolor="#666666"
     borderopacity="1.0"
     inkscape:pageopacity="0.0"
     inkscape:pageshadow="2"
     inkscape:zoom="3.959798"
     inkscape:cx="91.999493"
     inkscape:cy="67.525001"
     inkscape:document-units="px"
     inkscape:current-layer="g3815"
     showgrid="false"
     units="cm"
     fit-margin-top="0"
     fit-margin-left="0"
     fit-margin-right="0"
     fit-margin-bottom="0"
     inkscape:window-width="1600"
     inkscape:window-height="1125"
     inkscape:window-x="-9"
     inkscape:window-y="-9"
     inkscape:window-maximized="1" />
  <metadata
     id="metadata7">
    <rdf:RDF>
      <cc:Work
         rdf:about="">
        <dc:format>image/svg+xml</dc:format>
        <dc:type
           rdf:resource="http://purl.org/dc/dcmitype/StillImage" />
        <dc:title></dc:title>
      </cc:Work>
    </rdf:RDF>
  </metadata>
  <g
     inkscape:label="Layer 1"
     inkscape:groupmode="layer"
     id="layer1"
     transform="translate(-11.67147,-426.01543)"
     style="display:none">
    <image
       y="468.57648"
       x="-5.2857151"
       id="image2993"
       xlink:href="file:///C:/Users/Mattia%20Belletti/Pictures/325_Multi_Ripper_2.GIF"
       height="157.57144"
       width="210.09525" />
  </g>
  <g
     inkscape:groupmode="layer"
     id="layer5"
     inkscape:label="base"
     style="display:inline"
     transform="translate(-7.6714788,33.324307)" />
  <g
     inkscape:groupmode="layer"
     id="layer4"
     inkscape:label="claw 3"
     style="display:inline"
     transform="translate(-7.6714788,33.324307)" />
  <g
     inkscape:groupmode="layer"
     id="layer3"
     inkscape:label="claw 2"
     style="display:inline"
     transform="translate(-7.6714788,33.324307)" />
  <g
     inkscape:groupmode="layer"
     id="layer2"
     inkscape:label="claw 1"
     style="display:inline"
     transform="translate(-7.6714788,33.324307)" />
  <g
     inkscape:groupmode="layer"
     id="layer6"
     inkscape:label="claw 1 - end"
     style="display:inline"
     transform="translate(-7.6714788,33.324307)" />
  <g
     inkscape:label="claw 2 - end"
     id="g3811"
     inkscape:groupmode="layer"
     style="display:inline"
     transform="translate(-7.6714788,33.324307)" />
  <g
     inkscape:label="claw 3 - end"
     id="g3815"
     inkscape:groupmode="layer"
     style="display:inline"
     transform="translate(-7.6714788,33.324307)">
    <path
       style="fill:#d30f0f;fill-opacity:1;stroke:#000000;stroke-width:2.5;stroke-linecap:butt;stroke-linejoin:miter;stroke-miterlimit:2.45714283;stroke-opacity:1;stroke-dasharray:none;display:inline"
       d="M 31.062191,4.775503 C 35.607877,32.175891 9.5964492,64.248237 9.5964492,64.248237 5.3033009,79.905597 21.718279,91.14355 35.986684,81.42083 L 56.316004,78.895447 78.66563,28.387819 78.413091,16.265988 C 78.53936,9.447458 61.871844,-4.063332 61.871844,-4.063332 50.381359,-18.331737 32.703689,-14.164857 31.062191,4.775503 z"
       id="path3806"
       inkscape:connector-curvature="0"
       sodipodi:nodetypes="cccccccc" />
    <path
       style="fill:#848484;fill-opacity:1;stroke:#000000;stroke-width:2.5;stroke-linecap:butt;stroke-linejoin:miter;stroke-miterlimit:2.45714283;stroke-opacity:1;stroke-dasharray:none;display:inline"
       d="m 78.286822,16.265988 c 0,0 22.602158,17.172593 55.684658,5.42957 l 1.89403,7.828682 7.70242,3.535534 c -9.47018,13.889598 -28.158,24.748738 -28.158,24.748738 L 79.296975,30.786931 z"
       id="path3803"
       inkscape:connector-curvature="0"
       sodipodi:nodetypes="ccccccc" />
    <path
       style="fill:#848484;fill-opacity:1;stroke:#000000;stroke-width:2.5;stroke-linecap:butt;stroke-linejoin:miter;stroke-miterlimit:2.45714283;stroke-opacity:1;stroke-dasharray:none;display:inline"
       d="m 122.8598,57.177167 -1.51522,8.71256 6.06091,7.57615 c 0,0 -22.34963,8.965103 -35.607878,10.354063 L 72.352176,29.397972 78.791899,23.084518 c 0,0 20.203047,28.158003 44.067901,34.092649 z"
       id="path3800"
       inkscape:connector-curvature="0"
       sodipodi:nodetypes="ccccccc" />
    <path
       style="fill:#848484;fill-opacity:1;stroke:#000000;stroke-width:2.5;stroke-linecap:butt;stroke-linejoin:miter;stroke-miterlimit:2.45714283;stroke-opacity:1;stroke-dasharray:none;display:inline"
       d="m 70.714286,16.434524 c -10.136482,7.48257 -20.272963,14.965129 -30.409445,22.447699 -3.686447,3.01992 -4.861799,7.99099 -3.954383,12.52833 2.955966,10.961734 6.248073,21.852104 9.333718,32.786297 0.394284,3.05614 2.72218,5.13272 5.077779,6.86712 8.993784,5.63917 19.307512,8.70916 29.44685,11.59096 7.52728,1.93131 15.19573,3.72152 23.005485,3.7796 l -3.03572,-9.28571 c 0.95238,-2.61905 2.79762,-5.23809 3.75,-7.85714 -5.668581,-3.68679 -9.208315,-9.731343 -12.9544,-15.197743 -3.85642,-5.29633 -3.853436,-12.21817 -4.072401,-18.506864 0.402492,-3.60768 -1.274597,-6.96361 -1.999586,-10.43624 -2.288823,-8.5602 -4.577646,-17.1204 -6.866469,-25.680589 -1.063733,-2.95256 -4.566983,-3.76456 -7.321428,-3.03572 z"
       id="path2996"
       inkscape:connector-curvature="0"
       sodipodi:nodetypes="cccccccccccccc" />
    <path
       style="fill:#d30f0f;fill-opacity:1;stroke:#000000;stroke-width:2.5;stroke-linecap:butt;stroke-linejoin:miter;stroke-miterlimit:2.45714283;stroke-opacity:1;stroke-dasharray:none;display:inline"
       d="m 104.21253,89.20512 c 0,0 31.10103,4.85373 35.75018,10.45151 l -3.61927,0.67321 c 0,0 5.9838,1.61824 6.12217,3.45154 -14.89933,-1.51936 -26.37989,-1.07179 -38.95448,2.39934 z"
       id="path3809"
       inkscape:connector-curvature="0"
       sodipodi:nodetypes="cccccc" />
    <path
       sodipodi:nodetypes="cccccc"
       inkscape:connector-curvature="0"
       id="path3813"
       d="m 122.96928,57.045681 c 0,0 28.73456,-5.342802 34.53286,-1.874537 l -2.96199,1.705993 c 0,0 5.73961,-0.428583 6.42629,1.134274 -13.51705,3.265302 -23.54611,8.115518 -33.48783,15.034238 z"
       style="fill:#d30f0f;fill-opacity:1;stroke:#000000;stroke-width:2.5;stroke-linecap:butt;stroke-linejoin:miter;stroke-miterlimit:2.45714283;stroke-opacity:1;stroke-dasharray:none;display:inline"
       inkscape:transform-center-x="-19.094376"
       inkscape:transform-center-y="6.3929226" />
    <path
       sodipodi:nodetypes="cccccc"
       inkscape:connector-curvature="0"
       id="path3817"
       d="m 134.0808,21.390121 c 0,0 22.22625,-14.604199 28.31268,-13.736755 l -1.88417,2.474669 c 0,0 4.66456,-2.38133 5.79119,-1.311971 -10.19059,7.500896 -17.05576,14.493479 -22.95976,23.800193 z"
       style="fill:#d30f0f;fill-opacity:1;stroke:#000000;stroke-width:2.5;stroke-linecap:butt;stroke-linejoin:miter;stroke-miterlimit:2.45714283;stroke-opacity:1;stroke-dasharray:none"
       inkscape:transform-center-x="-16.286275"
       inkscape:transform-center-y="-1.168142" />
  </g>
</svg>
